<svg width="260" height="72" viewBox="0 0 260 72" fill="none" xmlns="http://www.w3.org/2000/svg">
<rect y="25" width="260" height="26" fill="#CBEDFF"/>
<path d="M54.6502 44.9C54.6502 48.3 53.1002 50.8167 50.0002 52.45C48.5002 53.25 46.3502 53.75 43.5502 53.95C42.7835 53.9833 40.5169 54 36.7502 54H30.6502C30.0835 54 29.8002 53.85 29.8002 53.55C29.8002 53.25 30.3169 53.1 31.3502 53.1C32.5502 53.1 33.2502 52.9833 33.4502 52.75C33.6835 52.4833 33.8002 51.7167 33.8002 50.45V23.4C33.8002 21.9333 33.7335 21.0833 33.6002 20.85C33.3669 20.45 32.5169 20.2333 31.0502 20.2C30.1502 20.2 29.7002 20.0333 29.7002 19.7C29.7002 19.4 30.1169 19.25 30.9502 19.25C30.9835 19.25 31.1835 19.25 31.5502 19.25C31.9169 19.2833 32.2502 19.3 32.5502 19.3L42.3002 19.4C45.9002 19.4333 48.5835 20.0333 50.3502 21.2C52.4169 22.5667 53.4502 24.55 53.4502 27.15C53.4502 29.4167 52.6002 31.2833 50.9002 32.75C49.2002 34.1833 46.8169 35.0833 43.7502 35.45V35.75C46.7835 35.95 49.1502 36.5833 50.8502 37.65C53.3835 39.25 54.6502 41.6667 54.6502 44.9ZM47.9502 27.65C47.9502 24.45 47.2169 22.3167 45.7502 21.25C44.9835 20.6833 43.5335 20.4 41.4002 20.4C40.8335 20.4 39.9502 20.45 38.7502 20.55V35.05H39.2002L41.9502 34.95C43.8502 34.8833 45.3169 34.2167 46.3502 32.95C47.4169 31.65 47.9502 29.8833 47.9502 27.65ZM49.4002 44.35C49.4002 40.15 47.7002 37.55 44.3002 36.55C43.3002 36.25 41.4502 36.1 38.7502 36.1V51C38.7502 51.9667 38.8502 52.5167 39.0502 52.65C39.3835 52.8833 40.3169 53 41.8502 53C44.1502 53 45.9835 52.2667 47.3502 50.8C48.7169 49.3333 49.4002 47.1833 49.4002 44.35ZM77.2146 48.55C77.2146 48.8833 76.948 49.4833 76.4146 50.35C75.9146 51.1833 75.398 51.8667 74.8646 52.4C73.4313 53.8667 71.5146 54.6 69.1146 54.6C66.1146 54.6 63.598 53.5167 61.5646 51.35C59.5646 49.1833 58.5646 46.5 58.5646 43.3C58.5646 39.9667 59.5146 37.1833 61.4146 34.95C63.348 32.7167 65.748 31.6 68.6146 31.6C70.9813 31.6 72.9646 32.3 74.5646 33.7C76.1646 35.0667 77.0146 36.8333 77.1146 39C76.048 39.1667 74.6313 39.2333 72.8646 39.2L69.3646 39.15C69.1313 39.15 67.1313 39.2 63.3646 39.3C63.198 40.4 63.1146 41.45 63.1146 42.45C63.1146 45.8167 63.748 48.4167 65.0146 50.25C66.3146 52.05 68.1313 52.95 70.4646 52.95C71.798 52.95 72.8646 52.65 73.6646 52.05C74.4646 51.45 75.3313 50.3 76.2646 48.6C76.398 48.3333 76.5813 48.2 76.8146 48.2C77.0813 48.2 77.2146 48.3167 77.2146 48.55ZM72.8646 38.35C72.7313 34.35 71.298 32.35 68.5646 32.35C65.8646 32.35 64.1813 34.35 63.5146 38.35H72.8646ZM99.949 51.75C99.949 52.3167 99.349 52.9167 98.149 53.55C96.9824 54.15 95.849 54.45 94.749 54.45C92.449 54.45 91.249 53.2667 91.149 50.9C89.8824 53.3667 87.9157 54.6 85.249 54.6C83.8157 54.6 82.6324 54.1833 81.699 53.35C80.7657 52.4833 80.299 51.3833 80.299 50.05C80.299 47.3167 81.949 45.15 85.249 43.55C86.3824 43.0167 88.349 42.4833 91.149 41.95V40.7C91.149 37.7667 90.999 35.8333 90.699 34.9C90.1657 33.2 88.9657 32.35 87.099 32.35C85.9324 32.35 84.949 32.6667 84.149 33.3C83.3824 33.9333 82.999 34.7333 82.999 35.7C82.999 35.9667 83.199 36.1 83.599 36.1C84.0324 36.1 84.4157 36.3 84.749 36.7C85.0824 37.1 85.249 37.55 85.249 38.05C85.249 39.5167 84.5157 40.25 83.049 40.25C82.2824 40.25 81.649 40 81.149 39.5C80.649 38.9667 80.399 38.3 80.399 37.5C80.399 35.9333 81.0157 34.5833 82.249 33.45C83.6157 32.2167 85.5157 31.6 87.949 31.6C91.6157 31.6 93.8657 32.6 94.699 34.6C94.999 35.3667 95.149 36.8833 95.149 39.15V48.5C95.149 50.0333 95.1657 50.9333 95.199 51.2C95.3657 52.4 95.849 53 96.649 53C97.5824 53 98.349 52.6667 98.949 52C99.2824 51.6333 99.5324 51.45 99.699 51.45C99.8657 51.45 99.949 51.55 99.949 51.75ZM91.149 46.45V42.8C88.649 43.3667 86.849 44.1167 85.749 45.05C84.6824 45.95 84.149 47.1667 84.149 48.7C84.149 49.7667 84.449 50.65 85.049 51.35C85.6824 52.0167 86.4657 52.35 87.399 52.35C88.8324 52.35 89.9824 51.55 90.849 49.95C91.049 49.5833 91.149 48.4167 91.149 46.45ZM141.999 43.45C141.999 43.75 141.849 43.9 141.549 43.9L140.399 43.85C138.866 43.7833 137.999 44.05 137.799 44.65C137.666 45.05 137.599 46.5 137.599 49V50.6C135.899 52.0667 134.249 53.1 132.649 53.7C131.083 54.3 129.199 54.6 126.999 54.6C121.733 54.6 117.549 53.0333 114.449 49.9C111.349 46.7333 109.799 42.45 109.799 37.05C109.799 31.5833 111.316 27.1667 114.349 23.8C117.383 20.4333 121.383 18.75 126.349 18.75C128.516 18.75 130.883 19.35 133.449 20.55C134.216 20.9167 134.849 21.1 135.349 21.1C135.983 21.1 136.399 20.7 136.599 19.9C136.766 19.4333 136.966 19.2 137.199 19.2C137.466 19.2 137.599 19.3333 137.599 19.6C137.599 19.7 137.566 20.05 137.499 20.65C137.299 22.55 137.199 23.9167 137.199 24.75L137.249 28C137.283 29.1667 137.299 29.6833 137.299 29.55C137.233 30.35 137.016 30.75 136.649 30.75C136.349 30.75 136.183 30.5167 136.149 30.05C135.983 26.8167 135.049 24.2833 133.349 22.45C131.649 20.5833 129.416 19.65 126.649 19.65C123.183 19.65 120.433 21.2 118.399 24.3C116.399 27.4 115.399 31.6167 115.399 36.95C115.399 42.0833 116.416 46.1667 118.449 49.2C120.516 52.2 123.299 53.7 126.799 53.7C129.466 53.7 131.299 52.9333 132.299 51.4C132.799 50.6333 133.049 49.25 133.049 47.25C133.049 45.5833 132.883 44.6 132.549 44.3C132.249 44 131.166 43.8667 129.299 43.9C128.833 43.9 128.533 43.8833 128.399 43.85C128.266 43.7833 128.199 43.6667 128.199 43.5C128.199 43.1333 128.566 42.95 129.299 42.95H130.199C130.699 43.05 132.466 43.0833 135.499 43.05L139.699 43C139.933 43 140.183 42.9833 140.449 42.95C140.716 42.95 140.899 42.95 140.999 42.95C141.666 42.95 141.999 43.1167 141.999 43.45ZM162.351 51.75C162.351 52.3167 161.751 52.9167 160.551 53.55C159.385 54.15 158.251 54.45 157.151 54.45C154.851 54.45 153.651 53.2667 153.551 50.9C152.285 53.3667 150.318 54.6 147.651 54.6C146.218 54.6 145.035 54.1833 144.101 53.35C143.168 52.4833 142.701 51.3833 142.701 50.05C142.701 47.3167 144.351 45.15 147.651 43.55C148.785 43.0167 150.751 42.4833 153.551 41.95V40.7C153.551 37.7667 153.401 35.8333 153.101 34.9C152.568 33.2 151.368 32.35 149.501 32.35C148.335 32.35 147.351 32.6667 146.551 33.3C145.785 33.9333 145.401 34.7333 145.401 35.7C145.401 35.9667 145.601 36.1 146.001 36.1C146.435 36.1 146.818 36.3 147.151 36.7C147.485 37.1 147.651 37.55 147.651 38.05C147.651 39.5167 146.918 40.25 145.451 40.25C144.685 40.25 144.051 40 143.551 39.5C143.051 38.9667 142.801 38.3 142.801 37.5C142.801 35.9333 143.418 34.5833 144.651 33.45C146.018 32.2167 147.918 31.6 150.351 31.6C154.018 31.6 156.268 32.6 157.101 34.6C157.401 35.3667 157.551 36.8833 157.551 39.15V48.5C157.551 50.0333 157.568 50.9333 157.601 51.2C157.768 52.4 158.251 53 159.051 53C159.985 53 160.751 52.6667 161.351 52C161.685 51.6333 161.935 51.45 162.101 51.45C162.268 51.45 162.351 51.55 162.351 51.75ZM153.551 46.45V42.8C151.051 43.3667 149.251 44.1167 148.151 45.05C147.085 45.95 146.551 47.1667 146.551 48.7C146.551 49.7667 146.851 50.65 147.451 51.35C148.085 52.0167 148.868 52.35 149.801 52.35C151.235 52.35 152.385 51.55 153.251 49.95C153.451 49.5833 153.551 48.4167 153.551 46.45ZM177.624 35C177.624 35.7667 177.391 36.4 176.924 36.9C176.458 37.4 175.858 37.65 175.124 37.65C174.524 37.65 174.024 37.4833 173.624 37.15C173.224 36.7833 173.024 36.3333 173.024 35.8C173.024 35.3333 173.174 34.9333 173.474 34.6C173.774 34.2667 173.924 34.0333 173.924 33.9C173.924 33.4 173.558 33.15 172.824 33.15C171.891 33.15 171.091 33.7333 170.424 34.9C169.658 36.2667 169.274 38.8 169.274 42.5V52.4C169.274 52.8 169.408 53.05 169.674 53.15C169.974 53.25 170.841 53.3167 172.274 53.35C172.641 53.4167 172.824 53.55 172.824 53.75C172.824 53.9833 172.608 54.1 172.174 54.1C171.408 54.1 170.691 54.0833 170.024 54.05C169.358 54.0167 168.091 54 166.224 54C165.258 54 164.558 54.0167 164.124 54.05C163.691 54.0833 163.141 54.1 162.474 54.1C161.941 54.1 161.674 53.9833 161.674 53.75C161.674 53.5167 161.891 53.4 162.324 53.4H163.024C164.158 53.4 164.824 53.2667 165.024 53C165.091 52.8667 165.124 52.25 165.124 51.15V37.4C165.124 35.5667 164.841 34.5167 164.274 34.25C163.741 33.95 162.874 33.7833 161.674 33.75C161.274 33.75 161.074 33.6333 161.074 33.4C161.074 33.1667 161.241 33.05 161.574 33.05H161.924C162.424 33.05 162.924 33.0833 163.424 33.15C163.924 33.1833 164.141 33.2 164.074 33.2C165.308 33.2 166.674 32.85 168.174 32.15L168.824 31.85L169.224 31.7C169.358 32.5 169.424 33.3 169.424 34.1V35.1C170.491 32.7667 171.991 31.6 173.924 31.6C174.991 31.6 175.874 31.9333 176.574 32.6C177.274 33.2333 177.624 34.0333 177.624 35ZM197.419 36.75C197.419 38.2833 196.669 39.05 195.169 39.05C193.702 39.05 192.969 38.35 192.969 36.95C192.969 36.5833 193.136 36.0333 193.469 35.3C193.569 35.0667 193.619 34.8333 193.619 34.6C193.619 33.9333 193.269 33.3833 192.569 32.95C191.902 32.5167 191.052 32.3 190.019 32.3C188.019 32.3 186.469 33.1667 185.369 34.9C184.269 36.6333 183.719 39.0667 183.719 42.2C183.719 45.7333 184.286 48.4667 185.419 50.4C186.552 52.3 188.152 53.25 190.219 53.25C191.619 53.25 192.869 52.8167 193.969 51.95C194.469 51.55 195.119 50.7833 195.919 49.65C196.086 49.4833 196.236 49.4 196.369 49.4C196.702 49.4 196.869 49.5333 196.869 49.8C196.869 50.2333 196.286 51.05 195.119 52.25C193.619 53.8167 191.702 54.6 189.369 54.6C186.436 54.6 184.002 53.55 182.069 51.45C180.169 49.35 179.219 46.7 179.219 43.5C179.219 40.0667 180.236 37.2333 182.269 35C184.302 32.7333 186.852 31.6 189.919 31.6C191.886 31.6 193.619 32.1167 195.119 33.15C196.652 34.1833 197.419 35.3833 197.419 36.75ZM206.478 22.55C206.478 24.05 205.728 24.8 204.228 24.8C203.595 24.8 203.061 24.6 202.628 24.2C202.195 23.7667 201.978 23.25 201.978 22.65C201.978 21.0833 202.728 20.3 204.228 20.3C205.728 20.3 206.478 21.05 206.478 22.55ZM210.228 53.7C210.228 54 209.945 54.15 209.378 54.15C209.411 54.15 209.011 54.1167 208.178 54.05C207.178 53.9833 206.345 53.95 205.678 53.95L200.478 54.05C200.311 54.0833 200.111 54.1 199.878 54.1C199.511 54.1 199.328 53.9833 199.328 53.75C199.328 53.4167 199.661 53.25 200.328 53.25C201.595 53.2167 202.278 53.1333 202.378 53C202.511 52.8333 202.578 52.1333 202.578 50.9L202.528 35.75C202.495 34.9167 202.445 34.4333 202.378 34.3C202.345 34.1333 202.145 34.05 201.778 34.05L200.328 34.1C200.195 34.1333 200.028 34.15 199.828 34.15C199.461 34.15 199.278 34.0167 199.278 33.75C199.278 33.5167 199.561 33.3833 200.128 33.35C202.361 33.25 204.278 32.7167 205.878 31.75L206.378 31.45C206.645 31.95 206.778 32.8667 206.778 34.2C206.778 34.1333 206.778 34.3 206.778 34.7C206.745 35.1 206.728 35.75 206.728 36.65V50.3C206.728 51.6333 206.745 52.4167 206.778 52.65C206.845 52.8833 207.028 53.0333 207.328 53.1C207.828 53.2333 208.561 53.3 209.528 53.3C209.995 53.3 210.228 53.4333 210.228 53.7ZM232.127 51.75C232.127 52.3167 231.527 52.9167 230.327 53.55C229.16 54.15 228.027 54.45 226.927 54.45C224.627 54.45 223.427 53.2667 223.327 50.9C222.06 53.3667 220.093 54.6 217.427 54.6C215.993 54.6 214.81 54.1833 213.877 53.35C212.943 52.4833 212.477 51.3833 212.477 50.05C212.477 47.3167 214.127 45.15 217.427 43.55C218.56 43.0167 220.527 42.4833 223.327 41.95V40.7C223.327 37.7667 223.177 35.8333 222.877 34.9C222.343 33.2 221.143 32.35 219.277 32.35C218.11 32.35 217.127 32.6667 216.327 33.3C215.56 33.9333 215.177 34.7333 215.177 35.7C215.177 35.9667 215.377 36.1 215.777 36.1C216.21 36.1 216.593 36.3 216.927 36.7C217.26 37.1 217.427 37.55 217.427 38.05C217.427 39.5167 216.693 40.25 215.227 40.25C214.46 40.25 213.827 40 213.327 39.5C212.827 38.9667 212.577 38.3 212.577 37.5C212.577 35.9333 213.193 34.5833 214.427 33.45C215.793 32.2167 217.693 31.6 220.127 31.6C223.793 31.6 226.043 32.6 226.877 34.6C227.177 35.3667 227.327 36.8833 227.327 39.15V48.5C227.327 50.0333 227.343 50.9333 227.377 51.2C227.543 52.4 228.027 53 228.827 53C229.76 53 230.527 52.6667 231.127 52C231.46 51.6333 231.71 51.45 231.877 51.45C232.043 51.45 232.127 51.55 232.127 51.75ZM223.327 46.45V42.8C220.827 43.3667 219.027 44.1167 217.927 45.05C216.86 45.95 216.327 47.1667 216.327 48.7C216.327 49.7667 216.627 50.65 217.227 51.35C217.86 52.0167 218.643 52.35 219.577 52.35C221.01 52.35 222.16 51.55 223.027 49.95C223.227 49.5833 223.327 48.4167 223.327 46.45Z" fill="#034668"/>
</svg>
