<svg width="163" height="40" viewBox="0 0 163 40" fill="none" xmlns="http://www.w3.org/2000/svg">
<path d="M25.048 19.248C25.4427 19.248 25.7867 19.2 26.08 19.104C26.3733 19.0027 26.616 18.8613 26.808 18.68C27.0053 18.4933 27.152 18.2693 27.248 18.008C27.344 17.7413 27.392 17.4453 27.392 17.12C27.392 16.8107 27.344 16.5307 27.248 16.28C27.152 16.0293 27.008 15.816 26.816 15.64C26.624 15.464 26.3813 15.3307 26.088 15.24C25.7947 15.144 25.448 15.096 25.048 15.096H23.44V19.248H25.048ZM25.048 13.432C25.8213 13.432 26.4907 13.5227 27.056 13.704C27.6213 13.8853 28.088 14.1387 28.456 14.464C28.824 14.7893 29.096 15.1787 29.272 15.632C29.4533 16.0853 29.544 16.5813 29.544 17.12C29.544 17.68 29.4507 18.1947 29.264 18.664C29.0773 19.128 28.7973 19.528 28.424 19.864C28.0507 20.2 27.5813 20.4613 27.016 20.648C26.456 20.8347 25.8 20.928 25.048 20.928H23.44V25H21.288V13.432H25.048ZM34.6903 18.936C35.0956 18.936 35.4476 18.8853 35.7463 18.784C36.0503 18.6827 36.2983 18.544 36.4903 18.368C36.6876 18.1867 36.8343 17.9733 36.9303 17.728C37.0263 17.4827 37.0743 17.2133 37.0743 16.92C37.0743 16.3333 36.8796 15.8827 36.4903 15.568C36.1063 15.2533 35.5169 15.096 34.7223 15.096H33.3463V18.936H34.6903ZM40.2263 25H38.2823C37.9143 25 37.6476 24.856 37.4823 24.568L35.0503 20.864C34.9596 20.7253 34.8583 20.6267 34.7463 20.568C34.6396 20.5093 34.4796 20.48 34.2663 20.48H33.3463V25H31.1943V13.432H34.7223C35.5063 13.432 36.1783 13.5147 36.7383 13.68C37.3036 13.84 37.7649 14.0667 38.1223 14.36C38.4849 14.6533 38.7516 15.0053 38.9223 15.416C39.0929 15.8213 39.1783 16.2693 39.1783 16.76C39.1783 17.1493 39.1196 17.5173 39.0023 17.864C38.8903 18.2107 38.7249 18.5253 38.5063 18.808C38.2929 19.0907 38.0263 19.3387 37.7063 19.552C37.3916 19.7653 37.0316 19.9333 36.6263 20.056C36.7649 20.136 36.8929 20.232 37.0103 20.344C37.1276 20.4507 37.2343 20.5787 37.3303 20.728L40.2263 25ZM52.3513 19.216C52.3513 20.064 52.2099 20.8507 51.9273 21.576C51.6499 22.296 51.2553 22.92 50.7433 23.448C50.2313 23.976 49.6153 24.3893 48.8953 24.688C48.1753 24.9813 47.3753 25.128 46.4953 25.128C45.6206 25.128 44.8233 24.9813 44.1033 24.688C43.3833 24.3893 42.7646 23.976 42.2473 23.448C41.7353 22.92 41.3379 22.296 41.0553 21.576C40.7726 20.8507 40.6313 20.064 40.6313 19.216C40.6313 18.368 40.7726 17.584 41.0553 16.864C41.3379 16.1387 41.7353 15.512 42.2473 14.984C42.7646 14.456 43.3833 14.0453 44.1033 13.752C44.8233 13.4533 45.6206 13.304 46.4953 13.304C47.0819 13.304 47.6339 13.3733 48.1513 13.512C48.6686 13.6453 49.1433 13.8373 49.5753 14.088C50.0073 14.3333 50.3939 14.6347 50.7353 14.992C51.0819 15.344 51.3753 15.7387 51.6153 16.176C51.8553 16.6133 52.0366 17.088 52.1593 17.6C52.2873 18.112 52.3513 18.6507 52.3513 19.216ZM50.1513 19.216C50.1513 18.5813 50.0659 18.0133 49.8953 17.512C49.7246 17.0053 49.4819 16.576 49.1673 16.224C48.8526 15.872 48.4686 15.6027 48.0153 15.416C47.5673 15.2293 47.0606 15.136 46.4953 15.136C45.9299 15.136 45.4206 15.2293 44.9673 15.416C44.5193 15.6027 44.1353 15.872 43.8153 16.224C43.5006 16.576 43.2579 17.0053 43.0873 17.512C42.9166 18.0133 42.8313 18.5813 42.8313 19.216C42.8313 19.8507 42.9166 20.4213 43.0873 20.928C43.2579 21.4293 43.5006 21.856 43.8153 22.208C44.1353 22.5547 44.5193 22.8213 44.9673 23.008C45.4206 23.1947 45.9299 23.288 46.4953 23.288C47.0606 23.288 47.5673 23.1947 48.0153 23.008C48.4686 22.8213 48.8526 22.5547 49.1673 22.208C49.4819 21.856 49.7246 21.4293 49.8953 20.928C50.0659 20.4213 50.1513 19.8507 50.1513 19.216ZM49.8713 10.112L47.2793 12.4C47.1726 12.496 47.0713 12.5547 46.9753 12.576C46.8793 12.5973 46.7566 12.608 46.6073 12.608H45.1753L46.8473 10.44C46.9006 10.3653 46.9539 10.3067 47.0073 10.264C47.0606 10.216 47.1193 10.1813 47.1833 10.16C47.2473 10.1387 47.3166 10.1253 47.3913 10.12C47.4713 10.1147 47.5646 10.112 47.6713 10.112H49.8713ZM63.2193 25H61.0753C60.9259 25 60.8059 24.9627 60.7153 24.888C60.6299 24.8133 60.5606 24.728 60.5073 24.632L57.8273 20.192C57.7846 20.3253 57.7339 20.44 57.6753 20.536L55.1073 24.632C55.0433 24.7227 54.9686 24.808 54.8832 24.888C54.8033 24.9627 54.6966 25 54.5633 25H52.5553L56.3953 19.048L52.7073 13.432H54.8513C55.0006 13.432 55.1073 13.4533 55.1713 13.496C55.2406 13.5333 55.3046 13.5973 55.3633 13.688L57.9953 17.928C58.0486 17.7947 58.1126 17.6613 58.1873 17.528L60.6033 13.728C60.6619 13.6267 60.7259 13.552 60.7952 13.504C60.8646 13.456 60.9526 13.432 61.0593 13.432H63.1153L59.3953 18.96L63.2193 25ZM66.7136 25H64.5536V13.432H66.7136V25ZM81.8476 13.432V25H79.9516V17.528C79.9516 17.2293 79.9676 16.9067 79.9996 16.56L76.5036 23.128C76.3383 23.4427 76.085 23.6 75.7436 23.6H75.4396C75.0983 23.6 74.845 23.4427 74.6796 23.128L71.1436 16.536C71.1596 16.712 71.173 16.8853 71.1836 17.056C71.1943 17.2267 71.1996 17.384 71.1996 17.528V25H69.3036V13.432H70.9276C71.0236 13.432 71.1063 13.4347 71.1756 13.44C71.245 13.4453 71.3063 13.4587 71.3596 13.48C71.4183 13.5013 71.469 13.536 71.5116 13.584C71.5596 13.632 71.605 13.696 71.6476 13.776L75.1116 20.2C75.2023 20.3707 75.285 20.5467 75.3596 20.728C75.4396 20.9093 75.517 21.096 75.5916 21.288C75.6663 21.0907 75.7436 20.9013 75.8236 20.72C75.9036 20.5333 75.989 20.3547 76.0796 20.184L79.4956 13.776C79.5383 13.696 79.5836 13.632 79.6316 13.584C79.6796 13.536 79.7303 13.5013 79.7836 13.48C79.8423 13.4587 79.9063 13.4453 79.9756 13.44C80.045 13.4347 80.1276 13.432 80.2236 13.432H81.8476ZM90.5406 20.632L89.1326 16.784C89.0633 16.6133 88.9913 16.4107 88.9166 16.176C88.842 15.9413 88.7673 15.688 88.6926 15.416C88.6233 15.688 88.5513 15.944 88.4766 16.184C88.402 16.4187 88.33 16.624 88.2606 16.8L86.8606 20.632H90.5406ZM94.3406 25H92.6766C92.49 25 92.338 24.9547 92.2206 24.864C92.1033 24.768 92.0153 24.6507 91.9566 24.512L91.0926 22.152H86.3006L85.4366 24.512C85.394 24.6347 85.3113 24.7467 85.1886 24.848C85.066 24.9493 84.914 25 84.7326 25H83.0526L87.6046 13.432H89.7966L94.3406 25ZM108.082 13.432V25H106.186V17.528C106.186 17.2293 106.202 16.9067 106.234 16.56L102.738 23.128C102.573 23.4427 102.319 23.6 101.978 23.6H101.674C101.333 23.6 101.079 23.4427 100.914 23.128L97.378 16.536C97.394 16.712 97.4073 16.8853 97.418 17.056C97.4287 17.2267 97.434 17.384 97.434 17.528V25H95.538V13.432H97.162C97.258 13.432 97.3407 13.4347 97.41 13.44C97.4793 13.4453 97.5407 13.4587 97.594 13.48C97.6527 13.5013 97.7033 13.536 97.746 13.584C97.794 13.632 97.8393 13.696 97.882 13.776L101.346 20.2C101.437 20.3707 101.519 20.5467 101.594 20.728C101.674 20.9093 101.751 21.096 101.826 21.288C101.901 21.0907 101.978 20.9013 102.058 20.72C102.138 20.5333 102.223 20.3547 102.314 20.184L105.73 13.776C105.773 13.696 105.818 13.632 105.866 13.584C105.914 13.536 105.965 13.5013 106.018 13.48C106.077 13.4587 106.141 13.4453 106.21 13.44C106.279 13.4347 106.362 13.432 106.458 13.432H108.082ZM112.823 15.144V18.352H116.871V20.008H112.823V23.28H117.959V25H110.663V13.432H117.959V15.144H112.823ZM129.618 13.432V25H128.514C128.343 25 128.199 24.9733 128.082 24.92C127.97 24.8613 127.861 24.7653 127.754 24.632L121.714 16.92C121.746 17.272 121.762 17.5973 121.762 17.896V25H119.866V13.432H120.994C121.085 13.432 121.162 13.4373 121.226 13.448C121.295 13.4533 121.354 13.4693 121.402 13.496C121.455 13.5173 121.506 13.552 121.554 13.6C121.602 13.6427 121.655 13.7013 121.714 13.776L127.778 21.52C127.762 21.3333 127.749 21.1493 127.738 20.968C127.727 20.7867 127.722 20.6187 127.722 20.464V13.432H129.618ZM140.274 15.2H136.786V25H134.634V15.2H131.146V13.432H140.274V15.2ZM143.948 15.144V18.352H147.996V20.008H143.948V23.28H149.084V25H141.788V13.432H149.084V15.144H143.948Z" fill="#034668"/>
<rect width="40" height="1" fill="#034668"/>
<rect y="40" width="40" height="1" transform="rotate(-90 0 40)" fill="#034668"/>
<rect x="163" y="40" width="40" height="1" transform="rotate(-180 163 40)" fill="#034668"/>
<rect x="163" width="40" height="1" transform="rotate(90 163 0)" fill="#034668"/>
</svg>
